<svg xmlns="http://www.w3.org/2000/svg" xmlns:xlink="http://www.w3.org/1999/xlink" contentStyleType="text/css" height="565" preserveAspectRatio="none" style="width:1927px;height:565px;background:#FFFFFF;" version="1.1" viewBox="0 0 1927 565" width="1927" zoomAndPan="magnify"><defs/><g><text fill="#000000" font-family="sans-serif" font-size="14" font-weight="bold" lengthAdjust="spacing" textLength="185" x="869.25" y="27.9951">US013 SD - Delete User</text><rect fill="#FFFFFF" height="317.3281" style="stroke:#181818;stroke-width:1.0;" width="10" x="496" y="149.7266"/><rect fill="#FFFFFF" height="288.1953" style="stroke:#181818;stroke-width:1.0;" width="10" x="700.5" y="178.8594"/><rect fill="#FFFFFF" height="216.9297" style="stroke:#181818;stroke-width:1.0;" width="10" x="1183.5" y="250.125"/><rect fill="#FFFFFF" height="187.7969" style="stroke:#181818;stroke-width:1.0;" width="10" x="1445.5" y="279.2578"/><rect fill="#FFFFFF" height="87.3984" style="stroke:#181818;stroke-width:1.0;" width="10" x="1666.5" y="308.3906"/><rect fill="#FFFFFF" height="29.1328" style="stroke:#181818;stroke-width:1.0;" width="10" x="1887.5" y="337.5234"/><line style="stroke:#181818;stroke-width:0.5;stroke-dasharray:5.0,5.0;" x1="27" x2="27" y1="118.5938" y2="485.0547"/><line style="stroke:#181818;stroke-width:0.5;stroke-dasharray:5.0,5.0;" x1="501" x2="501" y1="118.5938" y2="485.0547"/><line style="stroke:#181818;stroke-width:0.5;stroke-dasharray:5.0,5.0;" x1="705" x2="705" y1="118.5938" y2="485.0547"/><line style="stroke:#181818;stroke-width:0.5;stroke-dasharray:5.0,5.0;" x1="1188.5" x2="1188.5" y1="118.5938" y2="485.0547"/><line style="stroke:#181818;stroke-width:0.5;stroke-dasharray:5.0,5.0;" x1="1450.5" x2="1450.5" y1="118.5938" y2="485.0547"/><line style="stroke:#181818;stroke-width:0.5;stroke-dasharray:5.0,5.0;" x1="1671" x2="1671" y1="118.5938" y2="485.0547"/><line style="stroke:#181818;stroke-width:0.5;stroke-dasharray:5.0,5.0;" x1="1892.5" x2="1892.5" y1="118.5938" y2="485.0547"/><text fill="#000000" font-family="sans-serif" font-size="14" lengthAdjust="spacing" textLength="38" x="5" y="115.292">Users</text><ellipse cx="27" cy="50.7969" fill="#E2E2F0" rx="8" ry="8" style="stroke:#181818;stroke-width:0.5;"/><path d="M27,58.7969 L27,85.7969 M14,66.7969 L40,66.7969 M27,85.7969 L14,100.7969 M27,85.7969 L40,100.7969 " fill="none" style="stroke:#181818;stroke-width:0.5;"/><text fill="#000000" font-family="sans-serif" font-size="14" lengthAdjust="spacing" textLength="38" x="5" y="497.0498">Users</text><ellipse cx="27" cy="508.8516" fill="#E2E2F0" rx="8" ry="8" style="stroke:#181818;stroke-width:0.5;"/><path d="M27,516.8516 L27,543.8516 M14,524.8516 L40,524.8516 M27,543.8516 L14,558.8516 M27,543.8516 L40,558.8516 " fill="none" style="stroke:#181818;stroke-width:0.5;"/><rect fill="#E2E2F0" height="30.2969" rx="2.5" ry="2.5" style="stroke:#181818;stroke-width:0.5;" width="64" x="469" y="87.2969"/><text fill="#000000" font-family="sans-serif" font-size="14" lengthAdjust="spacing" textLength="50" x="476" y="107.292">Routes</text><rect fill="#E2E2F0" height="30.2969" rx="2.5" ry="2.5" style="stroke:#181818;stroke-width:0.5;" width="64" x="469" y="484.0547"/><text fill="#000000" font-family="sans-serif" font-size="14" lengthAdjust="spacing" textLength="50" x="476" y="504.0498">Routes</text><rect fill="#E2E2F0" height="30.2969" rx="2.5" ry="2.5" style="stroke:#181818;stroke-width:0.5;" width="325" x="543" y="87.2969"/><text fill="#000000" font-family="sans-serif" font-size="14" lengthAdjust="spacing" textLength="311" x="550" y="107.292">DeleteUserController:DeleteUserController</text><rect fill="#E2E2F0" height="30.2969" rx="2.5" ry="2.5" style="stroke:#181818;stroke-width:0.5;" width="325" x="543" y="484.0547"/><text fill="#000000" font-family="sans-serif" font-size="14" lengthAdjust="spacing" textLength="311" x="550" y="504.0498">DeleteUserController:DeleteUserController</text><rect fill="#E2E2F0" height="30.2969" rx="2.5" ry="2.5" style="stroke:#181818;stroke-width:0.5;" width="220" x="1078.5" y="87.2969"/><text fill="#000000" font-family="sans-serif" font-size="14" lengthAdjust="spacing" textLength="206" x="1085.5" y="107.292">useCase: DeleteUserUseCase</text><rect fill="#E2E2F0" height="30.2969" rx="2.5" ry="2.5" style="stroke:#181818;stroke-width:0.5;" width="220" x="1078.5" y="484.0547"/><text fill="#000000" font-family="sans-serif" font-size="14" lengthAdjust="spacing" textLength="206" x="1085.5" y="504.0498">useCase: DeleteUserUseCase</text><rect fill="#E2E2F0" height="30.2969" rx="2.5" ry="2.5" style="stroke:#181818;stroke-width:0.5;" width="164" x="1368.5" y="87.2969"/><text fill="#000000" font-family="sans-serif" font-size="14" lengthAdjust="spacing" textLength="150" x="1375.5" y="107.292">userRepo: IUserRepo</text><rect fill="#E2E2F0" height="30.2969" rx="2.5" ry="2.5" style="stroke:#181818;stroke-width:0.5;" width="164" x="1368.5" y="484.0547"/><text fill="#000000" font-family="sans-serif" font-size="14" lengthAdjust="spacing" textLength="150" x="1375.5" y="504.0498">userRepo: IUserRepo</text><rect fill="#E2E2F0" height="30.2969" rx="2.5" ry="2.5" style="stroke:#181818;stroke-width:0.5;" width="81" x="1631" y="87.2969"/><text fill="#000000" font-family="sans-serif" font-size="14" lengthAdjust="spacing" textLength="67" x="1638" y="107.292">User:User</text><rect fill="#E2E2F0" height="30.2969" rx="2.5" ry="2.5" style="stroke:#181818;stroke-width:0.5;" width="81" x="1631" y="484.0547"/><text fill="#000000" font-family="sans-serif" font-size="14" lengthAdjust="spacing" textLength="67" x="1638" y="504.0498">User:User</text><text fill="#000000" font-family="sans-serif" font-size="14" lengthAdjust="spacing" textLength="48" x="1865.5" y="115.292">MySQL</text><path d="M1874.5,66.2969 C1874.5,56.2969 1892.5,56.2969 1892.5,56.2969 C1892.5,56.2969 1910.5,56.2969 1910.5,66.2969 L1910.5,92.2969 C1910.5,102.2969 1892.5,102.2969 1892.5,102.2969 C1892.5,102.2969 1874.5,102.2969 1874.5,92.2969 L1874.5,66.2969 " fill="#E2E2F0" style="stroke:#181818;stroke-width:1.5;"/><path d="M1874.5,66.2969 C1874.5,76.2969 1892.5,76.2969 1892.5,76.2969 C1892.5,76.2969 1910.5,76.2969 1910.5,66.2969 " fill="none" style="stroke:#181818;stroke-width:1.5;"/><text fill="#000000" font-family="sans-serif" font-size="14" lengthAdjust="spacing" textLength="48" x="1865.5" y="497.0498">MySQL</text><path d="M1874.5,510.3516 C1874.5,500.3516 1892.5,500.3516 1892.5,500.3516 C1892.5,500.3516 1910.5,500.3516 1910.5,510.3516 L1910.5,536.3516 C1910.5,546.3516 1892.5,546.3516 1892.5,546.3516 C1892.5,546.3516 1874.5,546.3516 1874.5,536.3516 L1874.5,510.3516 " fill="#E2E2F0" style="stroke:#181818;stroke-width:1.5;"/><path d="M1874.5,510.3516 C1874.5,520.3516 1892.5,520.3516 1892.5,520.3516 C1892.5,520.3516 1910.5,520.3516 1910.5,510.3516 " fill="none" style="stroke:#181818;stroke-width:1.5;"/><rect fill="#FFFFFF" height="317.3281" style="stroke:#181818;stroke-width:1.0;" width="10" x="496" y="149.7266"/><rect fill="#FFFFFF" height="288.1953" style="stroke:#181818;stroke-width:1.0;" width="10" x="700.5" y="178.8594"/><rect fill="#FFFFFF" height="216.9297" style="stroke:#181818;stroke-width:1.0;" width="10" x="1183.5" y="250.125"/><rect fill="#FFFFFF" height="187.7969" style="stroke:#181818;stroke-width:1.0;" width="10" x="1445.5" y="279.2578"/><rect fill="#FFFFFF" height="87.3984" style="stroke:#181818;stroke-width:1.0;" width="10" x="1666.5" y="308.3906"/><rect fill="#FFFFFF" height="29.1328" style="stroke:#181818;stroke-width:1.0;" width="10" x="1887.5" y="337.5234"/><polygon fill="#181818" points="484,145.7266,494,149.7266,484,153.7266,488,149.7266" style="stroke:#181818;stroke-width:1.0;"/><line style="stroke:#181818;stroke-width:1.0;" x1="27" x2="490" y1="149.7266" y2="149.7266"/><text fill="#000000" font-family="sans-serif" font-size="13" font-weight="bold" lengthAdjust="spacing" textLength="21" x="34" y="144.6606">(1)</text><text fill="#000000" font-family="sans-serif" font-size="13" lengthAdjust="spacing" textLength="425" x="59" y="144.6606">call Endpoint (method: DELETE, route: "/", header: "Authorization")</text><polygon fill="#181818" points="688.5,174.8594,698.5,178.8594,688.5,182.8594,692.5,178.8594" style="stroke:#181818;stroke-width:1.0;"/><line style="stroke:#181818;stroke-width:1.0;" x1="506" x2="694.5" y1="178.8594" y2="178.8594"/><text fill="#000000" font-family="sans-serif" font-size="13" font-weight="bold" lengthAdjust="spacing" textLength="21" x="513" y="173.7935">(2)</text><text fill="#000000" font-family="sans-serif" font-size="13" lengthAdjust="spacing" textLength="115" x="538" y="173.7935">.execute(req, res)</text><line style="stroke:#181818;stroke-width:1.0;" x1="710.5" x2="752.5" y1="207.9922" y2="207.9922"/><line style="stroke:#181818;stroke-width:1.0;" x1="752.5" x2="752.5" y1="207.9922" y2="220.9922"/><line style="stroke:#181818;stroke-width:1.0;" x1="711.5" x2="752.5" y1="220.9922" y2="220.9922"/><polygon fill="#181818" points="721.5,216.9922,711.5,220.9922,721.5,224.9922,717.5,220.9922" style="stroke:#181818;stroke-width:1.0;"/><text fill="#000000" font-family="sans-serif" font-size="13" font-weight="bold" lengthAdjust="spacing" textLength="20" x="717.5" y="202.9263">(3)</text><text fill="#000000" font-family="sans-serif" font-size="13" lengthAdjust="spacing" textLength="435" x="741.5" y="202.9263">.executeImpl(req: DecodedExpressRequest,res: express.Response)</text><polygon fill="#181818" points="1171.5,246.125,1181.5,250.125,1171.5,254.125,1175.5,250.125" style="stroke:#181818;stroke-width:1.0;"/><line style="stroke:#181818;stroke-width:1.0;" x1="710.5" x2="1177.5" y1="250.125" y2="250.125"/><text fill="#000000" font-family="sans-serif" font-size="13" font-weight="bold" lengthAdjust="spacing" textLength="21" x="717.5" y="245.0591">(4)</text><text fill="#000000" font-family="sans-serif" font-size="13" lengthAdjust="spacing" textLength="87" x="742.5" y="245.0591">.execute(dto)</text><polygon fill="#181818" points="1433.5,275.2578,1443.5,279.2578,1433.5,283.2578,1437.5,279.2578" style="stroke:#181818;stroke-width:1.0;"/><line style="stroke:#181818;stroke-width:1.0;" x1="1193.5" x2="1439.5" y1="279.2578" y2="279.2578"/><text fill="#000000" font-family="sans-serif" font-size="13" font-weight="bold" lengthAdjust="spacing" textLength="21" x="1200.5" y="274.1919">(5)</text><text fill="#000000" font-family="sans-serif" font-size="13" lengthAdjust="spacing" textLength="208" x="1225.5" y="274.1919">.getUserByUserId (userId: string)</text><polygon fill="#181818" points="1654.5,304.3906,1664.5,308.3906,1654.5,312.3906,1658.5,308.3906" style="stroke:#181818;stroke-width:1.0;"/><line style="stroke:#181818;stroke-width:1.0;" x1="1455.5" x2="1660.5" y1="308.3906" y2="308.3906"/><text fill="#000000" font-family="sans-serif" font-size="13" font-weight="bold" lengthAdjust="spacing" textLength="21" x="1462.5" y="303.3247">(6)</text><text fill="#000000" font-family="sans-serif" font-size="13" lengthAdjust="spacing" textLength="167" x="1487.5" y="303.3247">.deleteUser(userid: string)</text><polygon fill="#181818" points="1875.5,333.5234,1885.5,337.5234,1875.5,341.5234,1879.5,337.5234" style="stroke:#181818;stroke-width:1.0;"/><line style="stroke:#181818;stroke-width:1.0;" x1="1676.5" x2="1881.5" y1="337.5234" y2="337.5234"/><text fill="#000000" font-family="sans-serif" font-size="13" font-weight="bold" lengthAdjust="spacing" textLength="21" x="1683.5" y="332.4575">(7)</text><text fill="#000000" font-family="sans-serif" font-size="13" lengthAdjust="spacing" textLength="167" x="1708.5" y="332.4575">.deleteUser(userid: string)</text><polygon fill="#181818" points="1687.5,362.6563,1677.5,366.6563,1687.5,370.6563,1683.5,366.6563" style="stroke:#181818;stroke-width:1.0;"/><line style="stroke:#181818;stroke-width:1.0;stroke-dasharray:2.0,2.0;" x1="1681.5" x2="1891.5" y1="366.6563" y2="366.6563"/><text fill="#000000" font-family="sans-serif" font-size="13" font-weight="bold" lengthAdjust="spacing" textLength="21" x="1693.5" y="361.5903">(8)</text><text fill="#000000" font-family="sans-serif" font-size="13" lengthAdjust="spacing" textLength="79" x="1718.5" y="361.5903">UserDeleted</text><polygon fill="#181818" points="1466.5,391.7891,1456.5,395.7891,1466.5,399.7891,1462.5,395.7891" style="stroke:#181818;stroke-width:1.0;"/><line style="stroke:#181818;stroke-width:1.0;stroke-dasharray:2.0,2.0;" x1="1460.5" x2="1670.5" y1="395.7891" y2="395.7891"/><text fill="#000000" font-family="sans-serif" font-size="13" font-weight="bold" lengthAdjust="spacing" textLength="21" x="1472.5" y="390.7231">(9)</text><text fill="#000000" font-family="sans-serif" font-size="13" lengthAdjust="spacing" textLength="79" x="1497.5" y="390.7231">UserDeleted</text><line style="stroke:#181818;stroke-width:1.0;" x1="1455.5" x2="1497.5" y1="424.9219" y2="424.9219"/><line style="stroke:#181818;stroke-width:1.0;" x1="1497.5" x2="1497.5" y1="424.9219" y2="437.9219"/><line style="stroke:#181818;stroke-width:1.0;" x1="1456.5" x2="1497.5" y1="437.9219" y2="437.9219"/><polygon fill="#181818" points="1466.5,433.9219,1456.5,437.9219,1466.5,441.9219,1462.5,437.9219" style="stroke:#181818;stroke-width:1.0;"/><text fill="#000000" font-family="sans-serif" font-size="13" font-weight="bold" lengthAdjust="spacing" textLength="31" x="1462.5" y="419.856">(10)</text><text fill="#000000" font-family="sans-serif" font-size="13" lengthAdjust="spacing" textLength="111" x="1497.5" y="419.856">.save(user: User)</text><polygon fill="#181818" points="1199.5,463.0547,1189.5,467.0547,1199.5,471.0547,1195.5,467.0547" style="stroke:#181818;stroke-width:1.0;"/><line style="stroke:#181818;stroke-width:1.0;stroke-dasharray:2.0,2.0;" x1="1193.5" x2="1449.5" y1="467.0547" y2="467.0547"/><text fill="#000000" font-family="sans-serif" font-size="13" font-weight="bold" lengthAdjust="spacing" textLength="30" x="1205.5" y="461.9888">(11)</text><text fill="#000000" font-family="sans-serif" font-size="13" lengthAdjust="spacing" textLength="79" x="1239.5" y="461.9888">UserDeleted</text><!--SRC=[ZLFBRi8m4BpxArOvWGIKghUegjH23aZqqD1yW8bNO2d4mNOGzElhHnAIObGkZZFUdV7EhccjHLaVjYWXUjs-ZURZY6Yk2uHiCtz-WSqIfh340hL154f2QAw5T7j5AYerptb5Imsfg3KEeSWdsjY5ABKKHO4o3e4HK0MXWo5VhN115SQzqCn3VmWQz2PRfbY965PPitLftTymtAAnNLoGAvvHJRU65pulcw-rXLk44ES8JDyQ8o26d1O592Mh13TyemFglM3cxiaw-Kuc86rS3D5JD84zKcRK87glJP3aFrHpKKPZwpO_KMD-Oozfs8rEq5oOuHbp4pAIU3GQg7eSGOD92FsVVtMe2gjXUv4BXYmvLqPDfNYiKUc9sSU07fkbg2fHAXm_89QrFUugOLe4YsYRJ6uWozXrrJ3jKDk_ZujTLmn6jVl6eBJavQx7Vfq5qcqjcni6cB5EoL7m48L_9dQrYUs0F9XydQTkrgQTl5rzhOmm3EHuqM7nTvByBGSrzXrJz8JkbfvWt8yCj-kEpjNG7dZRm-1XRqfxv_u5_080]--></g></svg>