<?xml version="1.0" encoding="us-ascii" standalone="no"?><svg xmlns="http://www.w3.org/2000/svg" xmlns:xlink="http://www.w3.org/1999/xlink" contentStyleType="text/css" height="865px" preserveAspectRatio="none" style="width:505px;height:865px;background:#FFFFFF;" version="1.1" viewBox="0 0 505 865" width="505px" zoomAndPan="magnify"><defs/><g><!--cluster DDD Forum--><g id="cluster_DDD Forum"><rect fill="none" height="852" rx="2.5" ry="2.5" style="stroke:#000000;stroke-width:1.0;" width="282" x="217" y="7"/><text fill="#000000" font-family="sans-serif" font-size="14" font-weight="bold" lengthAdjust="spacing" textLength="89" x="313.5" y="21.9951">DDD Forum</text></g><g id="elem_UC1"><ellipse cx="358.1802" cy="68.836" fill="#F1F1F1" rx="122.1802" ry="26.836" style="stroke:#181818;stroke-width:0.5;"/><text fill="#000000" font-family="sans-serif" font-size="14" lengthAdjust="spacing" textLength="212" x="252.1802" y="71.6827">US001: Register New Account</text></g><g id="elem_UC2"><ellipse cx="357.7652" cy="156.153" fill="#F1F1F1" rx="113.7652" ry="25.153" style="stroke:#181818;stroke-width:0.5;"/><text fill="#000000" font-family="sans-serif" font-size="14" lengthAdjust="spacing" textLength="194" x="260.7652" y="158.9997">US002: View Individual Post</text></g><g id="elem_UC3"><ellipse cx="358.1316" cy="240.2263" fill="#F1F1F1" rx="109.1316" ry="24.2263" style="stroke:#181818;stroke-width:0.5;"/><text fill="#000000" font-family="sans-serif" font-size="14" lengthAdjust="spacing" textLength="184" x="266.1316" y="243.073">US003: View Member Info</text></g><g id="elem_UC4"><ellipse cx="358.0038" cy="326.9008" fill="#F1F1F1" rx="125.0038" ry="27.4008" style="stroke:#181818;stroke-width:0.5;"/><text fill="#000000" font-family="sans-serif" font-size="14" lengthAdjust="spacing" textLength="218" x="249.0038" y="329.7474">US004: View Popular Posts List</text></g><g id="elem_UC5"><ellipse cx="358.2303" cy="415.2461" fill="#F1F1F1" rx="114.2303" ry="25.2461" style="stroke:#181818;stroke-width:0.5;"/><text fill="#000000" font-family="sans-serif" font-size="14" lengthAdjust="spacing" textLength="195" x="260.7303" y="418.0927">US006: View New Posts List</text></g><g id="elem_UC6"><ellipse cx="358.1163" cy="496.2233" fill="#F1F1F1" rx="94.1163" ry="21.2233" style="stroke:#181818;stroke-width:0.5;"/><text fill="#000000" font-family="sans-serif" font-size="14" lengthAdjust="spacing" textLength="151" x="282.6163" y="499.0699">US005: Create a Post</text></g><g id="elem_UC7"><ellipse cx="358.0673" cy="574.2135" fill="#F1F1F1" rx="99.0673" ry="22.2135" style="stroke:#181818;stroke-width:0.5;"/><text fill="#000000" font-family="sans-serif" font-size="14" lengthAdjust="spacing" textLength="162" x="277.0673" y="577.0601">US007: Comment Post</text></g><g id="elem_UC8"><ellipse cx="357.9079" cy="655.7816" fill="#F1F1F1" rx="111.9079" ry="24.7816" style="stroke:#181818;stroke-width:0.5;"/><text fill="#000000" font-family="sans-serif" font-size="14" lengthAdjust="spacing" textLength="190" x="262.9079" y="658.6283">US008: Reply to Comment</text></g><g id="elem_UC9"><ellipse cx="357.8318" cy="736.8664" fill="#F1F1F1" rx="92.3318" ry="20.8664" style="stroke:#181818;stroke-width:0.5;"/><text fill="#000000" font-family="sans-serif" font-size="14" lengthAdjust="spacing" textLength="147" x="284.3318" y="739.713">US009: Vote on Post</text></g><g id="elem_UC10"><ellipse cx="358.0183" cy="818.0037" fill="#F1F1F1" rx="110.5183" ry="24.5037" style="stroke:#181818;stroke-width:0.5;"/><text fill="#000000" font-family="sans-serif" font-size="14" lengthAdjust="spacing" textLength="187" x="264.5183" y="820.8503">US010: Vote on Comment</text></g><!--entity Visitor--><g id="elem_Visitor"><ellipse cx="149.5" cy="254.5" fill="#F1F1F1" rx="8" ry="8" style="stroke:#181818;stroke-width:0.5;"/><path d="M149.5,262.5 L149.5,289.5 M136.5,270.5 L162.5,270.5 M149.5,289.5 L136.5,304.5 M149.5,289.5 L162.5,304.5 " fill="none" style="stroke:#181818;stroke-width:0.5;"/><text fill="#000000" font-family="sans-serif" font-size="14" lengthAdjust="spacing" textLength="47" x="126" y="318.9951">Visitor</text></g><!--entity Member--><g id="elem_Member"><ellipse cx="36" cy="586.5" fill="#F1F1F1" rx="8" ry="8" style="stroke:#181818;stroke-width:0.5;"/><path d="M36,594.5 L36,621.5 M23,602.5 L49,602.5 M36,621.5 L23,636.5 M36,621.5 L49,636.5 " fill="none" style="stroke:#181818;stroke-width:0.5;"/><text fill="#000000" font-family="sans-serif" font-size="14" lengthAdjust="spacing" textLength="60" x="6" y="650.9951">Member</text></g><!--link Member to Visitor--><g id="link_Member_Visitor"><path d="M49.7905,577.915 C69.2721,519.907 106.512,409.022 129.265,341.272 " fill="none" id="Member-to-Visitor" style="stroke:#181818;stroke-width:1.0;"/><polygon fill="none" points="122.684,338.881,135.687,322.15,135.956,343.338,122.684,338.881" style="stroke:#181818;stroke-width:1.0;"/></g><!--link Visitor to UC1--><g id="link_Visitor_UC1"><path d="M153.587,245.646 C158.732,206.966 172.448,148.096 209,113 C221.266,101.223 236.541,92.58 252.581,86.242 " fill="none" id="Visitor-to-UC1" style="stroke:#181818;stroke-width:1.0;"/><polygon fill="#181818" points="257.581,84.348,247.7476,83.796,252.9053,86.1194,250.5819,91.2771,257.581,84.348" style="stroke:#181818;stroke-width:1.0;"/></g><!--link Visitor to UC2--><g id="link_Visitor_UC2"><path d="M168.61,245.967 C178.409,229.062 192.013,210.256 209,198 C224.443,186.858 242.764,178.665 261.161,172.642 " fill="none" id="Visitor-to-UC2" style="stroke:#181818;stroke-width:1.0;"/><polygon fill="#181818" points="266.35,171,256.5626,169.9017,261.583,172.5085,258.9762,177.529,266.35,171" style="stroke:#181818;stroke-width:1.0;"/></g><!--link Visitor to UC3--><g id="link_Visitor_UC3"><path d="M173.388,279.123 C197.609,273.962 237.271,265.511 273.546,257.782 " fill="none" id="Visitor-to-UC3" style="stroke:#181818;stroke-width:1.0;"/><polygon fill="#181818" points="278.871,256.647,269.2346,254.6121,273.981,257.6899,270.9032,262.4362,278.871,256.647" style="stroke:#181818;stroke-width:1.0;"/></g><!--link Visitor to UC4--><g id="link_Visitor_UC4"><path d="M173.388,288.766 C194.918,293.249 228.649,300.273 261.357,307.084 " fill="none" id="Visitor-to-UC4" style="stroke:#181818;stroke-width:1.0;"/><polygon fill="#181818" points="266.595,308.175,258.6001,302.4234,261.7001,307.1552,256.9683,310.2552,266.595,308.175" style="stroke:#181818;stroke-width:1.0;"/></g><!--link Visitor to UC5--><g id="link_Visitor_UC5"><path d="M168.21,322.421 C177.994,339.822 191.7,359.295 209,372 C224.806,383.607 243.691,392.093 262.598,398.293 " fill="none" id="Visitor-to-UC5" style="stroke:#181818;stroke-width:1.0;"/><polygon fill="#181818" points="267.404,399.82,260.0402,393.2797,262.6393,398.3042,257.6149,400.9032,267.404,399.82" style="stroke:#181818;stroke-width:1.0;"/></g><!--link Member to UC6--><g id="link_Member_UC6"><path d="M66.1291,600.269 C99.7876,582.572 157.2,553.843 209,535 C233.581,526.058 261.14,518.227 285.754,511.974 " fill="none" id="Member-to-UC6" style="stroke:#181818;stroke-width:1.0;"/><polygon fill="#181818" points="290.636,510.744,280.932,509.061,285.7871,511.9641,282.8841,516.8192,290.636,510.744" style="stroke:#181818;stroke-width:1.0;"/></g><!--link Member to UC7--><g id="link_Member_UC7"><path d="M66.2572,612.019 C83.618,609.665 106.061,606.639 126,604 C172.423,597.856 224.11,591.132 266.802,585.61 " fill="none" id="Member-to-UC7" style="stroke:#181818;stroke-width:1.0;"/><polygon fill="#181818" points="271.963,584.943,262.5242,582.1307,267.0043,585.5844,263.5505,590.0645,271.963,584.943" style="stroke:#181818;stroke-width:1.0;"/></g><!--link Member to UC8--><g id="link_Member_UC8"><path d="M66.2462,619.656 C108.651,624.956 189.311,635.039 254.937,643.242 " fill="none" id="Member-to-UC8" style="stroke:#181818;stroke-width:1.0;"/><polygon fill="#181818" points="260.034,643.879,251.5995,638.7939,255.0726,643.259,250.6075,646.7321,260.034,643.879" style="stroke:#181818;stroke-width:1.0;"/></g><!--link Member to UC9--><g id="link_Member_UC9"><path d="M66.0549,632.227 C99.6453,650.461 156.995,679.989 209,699 C233.191,707.843 260.322,715.445 284.682,721.474 " fill="none" id="Member-to-UC9" style="stroke:#181818;stroke-width:1.0;"/><polygon fill="#181818" points="289.836,722.737,282.0447,716.7124,284.9793,721.5485,280.1432,724.4831,289.836,722.737" style="stroke:#181818;stroke-width:1.0;"/></g><!--link Member to UC10--><g id="link_Member_UC10"><path d="M66.2551,651.761 C97.8458,688.119 151.432,743.58 209,776 C227.529,786.4347 248.848,794.4413 269.429,800.5209 " fill="none" id="Member-to-UC10" style="stroke:#181818;stroke-width:1.0;"/><polygon fill="#181818" points="274.363,801.9461,266.8261,795.6062,269.5593,800.5589,264.6066,803.2921,274.363,801.9461" style="stroke:#181818;stroke-width:1.0;"/></g><!--SRC=[PPBBRi8m44Nt_efHDgoG4XxbiK1gePMGMbIredkJ3C72yKIsqnQr_VSwmJo2lKXyvNFlZ3pkcBrG9TUyW88KfJjD1OBL5RBBISdJFS_ntHuaWiRKSfLBP9qBONOyeo-XSjXoQP1TcS_y3mEt7aXdgESaISD6kc3snrZ72kkYrmPXpjrd8NXUUn-_UL6wIapYre8bq2BVMSX47If8CSPJwuAY3s64sqJ03VZzwUW5YmqUJuvRnev_w7P_PsVQhNEd42qM2tWYNHKH7Dkk3APrPz7wFOwJARnXBenr8IlyWliqfKhPfiPwdeI6tjJLSU1IPU9JP1MNy4hcPEY5Xhut-4wNQaiUxeVmmCElL5QIwoRQmBCu5nY4dZllMJM-6tuOyiCfp3LoYy2lMxyBoP4ZgIXGsMjm58BZ-XPBUQZdwXqU7eVmnFLBhZgfwzH902Rn1Mo79d7zqloutUndpQZQkdUZ-pTwSAE7bwSqQswZ9KTjEMxBILicyJy0]--></g></svg>